<mxfile host="app.diagrams.net" agent="Mozilla/5.0 (Windows NT 10.0; Win64; x64) AppleWebKit/537.36 (KHTML, like Gecko) Chrome/133.0.0.0 Safari/537.36 OPR/118.0.0.0 (Edition 360-1)" version="26.2.14">
  <diagram name="PÃ¡gina-1" id="_VXuSuYcEN7Ru4z9_0fD">
    <mxGraphModel dx="818" dy="1609" grid="1" gridSize="10" guides="1" tooltips="1" connect="1" arrows="1" fold="1" page="1" pageScale="1" pageWidth="827" pageHeight="1169" math="0" shadow="0">
      <root>
        <mxCell id="0" />
        <mxCell id="1" parent="0" />
        <mxCell id="jbTKPjCPbMfSO4bHR7Ny-1" value="&lt;&lt;interface&gt;&gt;&#xa;Notificador" style="swimlane;fontStyle=1;align=center;verticalAlign=top;childLayout=stackLayout;horizontal=1;startSize=71;horizontalStack=0;resizeParent=1;resizeParentMax=0;resizeLast=0;collapsible=0;marginBottom=0;" vertex="1" parent="1">
          <mxGeometry x="170" y="-50" width="175" height="126" as="geometry" />
        </mxCell>
        <mxCell id="jbTKPjCPbMfSO4bHR7Ny-2" style="line;strokeWidth=1;fillColor=none;align=left;verticalAlign=middle;spacingTop=-1;spacingLeft=3;spacingRight=3;rotatable=0;labelPosition=right;points=[];portConstraint=eastwest;strokeColor=inherit;" vertex="1" parent="jbTKPjCPbMfSO4bHR7Ny-1">
          <mxGeometry y="71" width="175" height="8" as="geometry" />
        </mxCell>
        <mxCell id="jbTKPjCPbMfSO4bHR7Ny-3" value="+notificar(msg)" style="text;strokeColor=none;fillColor=none;align=left;verticalAlign=top;spacingLeft=4;spacingRight=4;overflow=hidden;rotatable=0;points=[[0,0.5],[1,0.5]];portConstraint=eastwest;" vertex="1" parent="jbTKPjCPbMfSO4bHR7Ny-1">
          <mxGeometry y="79" width="175" height="47" as="geometry" />
        </mxCell>
        <mxCell id="jbTKPjCPbMfSO4bHR7Ny-4" value="NotificadorBasico" style="swimlane;fontStyle=1;align=center;verticalAlign=top;childLayout=stackLayout;horizontal=1;startSize=47.2;horizontalStack=0;resizeParent=1;resizeParentMax=0;resizeLast=0;collapsible=0;marginBottom=0;" vertex="1" parent="1">
          <mxGeometry x="240" y="120" width="120" height="102.2" as="geometry" />
        </mxCell>
        <mxCell id="jbTKPjCPbMfSO4bHR7Ny-5" style="line;strokeWidth=1;fillColor=none;align=left;verticalAlign=middle;spacingTop=-1;spacingLeft=3;spacingRight=3;rotatable=0;labelPosition=right;points=[];portConstraint=eastwest;strokeColor=inherit;" vertex="1" parent="jbTKPjCPbMfSO4bHR7Ny-4">
          <mxGeometry y="47.2" width="120" height="8" as="geometry" />
        </mxCell>
        <mxCell id="jbTKPjCPbMfSO4bHR7Ny-6" value="+notificar(msg)" style="text;strokeColor=none;fillColor=none;align=left;verticalAlign=top;spacingLeft=4;spacingRight=4;overflow=hidden;rotatable=0;points=[[0,0.5],[1,0.5]];portConstraint=eastwest;" vertex="1" parent="jbTKPjCPbMfSO4bHR7Ny-4">
          <mxGeometry y="55.2" width="120" height="47" as="geometry" />
        </mxCell>
        <mxCell id="jbTKPjCPbMfSO4bHR7Ny-7" value="&lt;&lt;abstract&gt;&gt;&#xa;DecoradorNotificador" style="swimlane;fontStyle=1;align=center;verticalAlign=top;childLayout=stackLayout;horizontal=1;startSize=68.57142857142857;horizontalStack=0;resizeParent=1;resizeParentMax=0;resizeLast=0;collapsible=0;marginBottom=0;" vertex="1" parent="1">
          <mxGeometry x="200" y="250" width="170" height="168.57142857142856" as="geometry" />
        </mxCell>
        <mxCell id="jbTKPjCPbMfSO4bHR7Ny-8" value="-wrappee: Notificador" style="text;strokeColor=none;fillColor=none;align=left;verticalAlign=top;spacingLeft=4;spacingRight=4;overflow=hidden;rotatable=0;points=[[0,0.5],[1,0.5]];portConstraint=eastwest;" vertex="1" parent="jbTKPjCPbMfSO4bHR7Ny-7">
          <mxGeometry y="68.57142857142857" width="170" height="46" as="geometry" />
        </mxCell>
        <mxCell id="jbTKPjCPbMfSO4bHR7Ny-9" style="line;strokeWidth=1;fillColor=none;align=left;verticalAlign=middle;spacingTop=-1;spacingLeft=3;spacingRight=3;rotatable=0;labelPosition=right;points=[];portConstraint=eastwest;strokeColor=inherit;" vertex="1" parent="jbTKPjCPbMfSO4bHR7Ny-7">
          <mxGeometry y="114.57142857142857" width="170" height="8" as="geometry" />
        </mxCell>
        <mxCell id="jbTKPjCPbMfSO4bHR7Ny-10" value="+notificar(msg)" style="text;strokeColor=none;fillColor=none;align=left;verticalAlign=top;spacingLeft=4;spacingRight=4;overflow=hidden;rotatable=0;points=[[0,0.5],[1,0.5]];portConstraint=eastwest;" vertex="1" parent="jbTKPjCPbMfSO4bHR7Ny-7">
          <mxGeometry y="122.57142857142857" width="170" height="46" as="geometry" />
        </mxCell>
        <mxCell id="jbTKPjCPbMfSO4bHR7Ny-11" value="SMSDecorator" style="swimlane;fontStyle=1;align=center;verticalAlign=top;childLayout=stackLayout;horizontal=1;startSize=47.2;horizontalStack=0;resizeParent=1;resizeParentMax=0;resizeLast=0;collapsible=0;marginBottom=0;" vertex="1" parent="1">
          <mxGeometry x="161" y="482" width="119" height="102.2" as="geometry" />
        </mxCell>
        <mxCell id="jbTKPjCPbMfSO4bHR7Ny-12" style="line;strokeWidth=1;fillColor=none;align=left;verticalAlign=middle;spacingTop=-1;spacingLeft=3;spacingRight=3;rotatable=0;labelPosition=right;points=[];portConstraint=eastwest;strokeColor=inherit;" vertex="1" parent="jbTKPjCPbMfSO4bHR7Ny-11">
          <mxGeometry y="47.2" width="119" height="8" as="geometry" />
        </mxCell>
        <mxCell id="jbTKPjCPbMfSO4bHR7Ny-13" value="+notificar(msg)" style="text;strokeColor=none;fillColor=none;align=left;verticalAlign=top;spacingLeft=4;spacingRight=4;overflow=hidden;rotatable=0;points=[[0,0.5],[1,0.5]];portConstraint=eastwest;" vertex="1" parent="jbTKPjCPbMfSO4bHR7Ny-11">
          <mxGeometry y="55.2" width="119" height="47" as="geometry" />
        </mxCell>
        <mxCell id="jbTKPjCPbMfSO4bHR7Ny-22" style="edgeStyle=orthogonalEdgeStyle;rounded=0;orthogonalLoop=1;jettySize=auto;html=1;exitX=0.5;exitY=0;exitDx=0;exitDy=0;" edge="1" parent="1" source="jbTKPjCPbMfSO4bHR7Ny-14">
          <mxGeometry relative="1" as="geometry">
            <mxPoint x="400" y="470" as="targetPoint" />
          </mxGeometry>
        </mxCell>
        <mxCell id="jbTKPjCPbMfSO4bHR7Ny-14" value="WhatsAppDecorator" style="swimlane;fontStyle=1;align=center;verticalAlign=top;childLayout=stackLayout;horizontal=1;startSize=47.2;horizontalStack=0;resizeParent=1;resizeParentMax=0;resizeLast=0;collapsible=0;marginBottom=0;" vertex="1" parent="1">
          <mxGeometry x="310" y="482" width="140" height="102.2" as="geometry" />
        </mxCell>
        <mxCell id="jbTKPjCPbMfSO4bHR7Ny-15" style="line;strokeWidth=1;fillColor=none;align=left;verticalAlign=middle;spacingTop=-1;spacingLeft=3;spacingRight=3;rotatable=0;labelPosition=right;points=[];portConstraint=eastwest;strokeColor=inherit;" vertex="1" parent="jbTKPjCPbMfSO4bHR7Ny-14">
          <mxGeometry y="47.2" width="140" height="8" as="geometry" />
        </mxCell>
        <mxCell id="jbTKPjCPbMfSO4bHR7Ny-16" value="+notificar(msg)" style="text;strokeColor=none;fillColor=none;align=left;verticalAlign=top;spacingLeft=4;spacingRight=4;overflow=hidden;rotatable=0;points=[[0,0.5],[1,0.5]];portConstraint=eastwest;" vertex="1" parent="jbTKPjCPbMfSO4bHR7Ny-14">
          <mxGeometry y="55.2" width="140" height="47" as="geometry" />
        </mxCell>
        <mxCell id="jbTKPjCPbMfSO4bHR7Ny-17" value="" style="curved=1;dashed=1;startArrow=block;startSize=16;startFill=0;endArrow=none;entryX=0.5;entryY=0;rounded=0;exitX=0.657;exitY=0.957;exitDx=0;exitDy=0;exitPerimeter=0;" edge="1" parent="1" source="jbTKPjCPbMfSO4bHR7Ny-3" target="jbTKPjCPbMfSO4bHR7Ny-4">
          <mxGeometry relative="1" as="geometry">
            <Array as="points" />
            <mxPoint x="290" y="100" as="sourcePoint" />
          </mxGeometry>
        </mxCell>
        <mxCell id="jbTKPjCPbMfSO4bHR7Ny-18" value="" style="curved=1;dashed=1;startArrow=block;startSize=16;startFill=0;endArrow=none;exitX=0.5;exitY=1;rounded=0;entryX=0;entryY=0;entryDx=0;entryDy=0;" edge="1" parent="1" source="jbTKPjCPbMfSO4bHR7Ny-1" target="jbTKPjCPbMfSO4bHR7Ny-7">
          <mxGeometry relative="1" as="geometry">
            <Array as="points">
              <mxPoint x="140" y="200" />
            </Array>
            <mxPoint x="140" y="300" as="targetPoint" />
          </mxGeometry>
        </mxCell>
        <mxCell id="jbTKPjCPbMfSO4bHR7Ny-19" value="" style="curved=1;startArrow=block;startSize=16;startFill=0;endArrow=none;exitX=0.14;exitY=1;entryX=0.5;entryY=0;rounded=0;" edge="1" parent="1" source="jbTKPjCPbMfSO4bHR7Ny-7" target="jbTKPjCPbMfSO4bHR7Ny-11">
          <mxGeometry relative="1" as="geometry">
            <Array as="points">
              <mxPoint x="210" y="460" />
              <mxPoint x="200" y="470" />
            </Array>
          </mxGeometry>
        </mxCell>
        <mxCell id="jbTKPjCPbMfSO4bHR7Ny-20" value="" style="curved=1;startArrow=block;startSize=16;startFill=0;endArrow=none;exitX=0.86;exitY=1;entryX=0.5;entryY=0;rounded=0;" edge="1" parent="1" source="jbTKPjCPbMfSO4bHR7Ny-7" target="jbTKPjCPbMfSO4bHR7Ny-14">
          <mxGeometry relative="1" as="geometry">
            <Array as="points">
              <mxPoint x="360" y="460" />
            </Array>
          </mxGeometry>
        </mxCell>
        <mxCell id="jbTKPjCPbMfSO4bHR7Ny-21" value="wrappee" style="curved=1;startArrow=diamondThin;startSize=14;startFill=0;endArrow=none;entryX=1;entryY=0.91;rounded=0;exitX=1;exitY=0;exitDx=0;exitDy=0;" edge="1" parent="1" source="jbTKPjCPbMfSO4bHR7Ny-7" target="jbTKPjCPbMfSO4bHR7Ny-1">
          <mxGeometry relative="1" as="geometry">
            <Array as="points">
              <mxPoint x="440" y="110" />
            </Array>
            <mxPoint x="370" y="220" as="sourcePoint" />
          </mxGeometry>
        </mxCell>
      </root>
    </mxGraphModel>
  </diagram>
</mxfile>
